<svg width="50" height="50" viewBox="0 0 50 50" fill="none" xmlns="http://www.w3.org/2000/svg">
<path d="M14.5793 0C6.53968 0 0 6.54574 0 14.5874V35.4207C0 43.4603 6.54574 50 14.5874 50H35.4207C43.4603 50 50 43.4543 50 35.4126V14.5793C50 6.53968 43.4543 0 35.4126 0H14.5793ZM39.5833 8.33333C40.7333 8.33333 41.6667 9.26667 41.6667 10.4167C41.6667 11.5667 40.7333 12.5 39.5833 12.5C38.4333 12.5 37.5 11.5667 37.5 10.4167C37.5 9.26667 38.4333 8.33333 39.5833 8.33333ZM25 12.5C31.8937 12.5 37.5 18.1062 37.5 25C37.5 31.8937 31.8937 37.5 25 37.5C18.1062 37.5 12.5 31.8937 12.5 25C12.5 18.1062 18.1062 12.5 25 12.5ZM25 16.6667C22.7899 16.6667 20.6702 17.5446 19.1074 19.1074C17.5446 20.6702 16.6667 22.7899 16.6667 25C16.6667 27.2101 17.5446 29.3298 19.1074 30.8926C20.6702 32.4554 22.7899 33.3333 25 33.3333C27.2101 33.3333 29.3298 32.4554 30.8926 30.8926C32.4554 29.3298 33.3333 27.2101 33.3333 25C33.3333 22.7899 32.4554 20.6702 30.8926 19.1074C29.3298 17.5446 27.2101 16.6667 25 16.6667V16.6667Z" fill="#F69483"/>
</svg>
